<svg xmlns="http://www.w3.org/2000/svg" viewBox="0 0 50 50"><title>69. favorite</title><g id="Layer_70" data-name="Layer 70"><path d="M38.42285,47.4375a1.79205,1.79205,0,0,1-.831-.206L25,40.61084,12.40918,47.231a1.7835,1.7835,0,0,1-2.58789-1.8794l2.40527-14.02148L2.03906,21.40039a1.78336,1.78336,0,0,1,.98828-3.0415l14.07813-2.04541,6.2959-12.75635a1.78241,1.78241,0,0,1,3.19726,0l6.2959,12.75635,14.07813,2.04541a1.78275,1.78275,0,0,1,.9873,3.0415L37.77344,31.33008l2.40527,14.021a1.78661,1.78661,0,0,1-1.75586,2.08643ZM3.75,20.2749l10.249,9.98975a1.00111,1.00111,0,0,1,.28711.88525L11.86621,45.25635l12.668-6.66065a1.001,1.001,0,0,1,.93164,0l12.668,6.66065L35.71387,31.1499a1.00113,1.00113,0,0,1,.28711-.88525L46.25,20.2749,32.08691,18.21729a.99882.99882,0,0,1-.75293-.54737L25,4.83643,18.666,17.66992a.99882.99882,0,0,1-.75293.54737Zm42.93555.06348h0Z"/></g></svg>